<svg width="123" height="87" viewBox="0 0 123 87" fill="none" xmlns="http://www.w3.org/2000/svg">
<path fill-rule="evenodd" clip-rule="evenodd" d="M40.3841 4.99199C38.6751 7.64539 37.8881 10.9734 37.1235 14.1889C36.5614 16.4826 34.9648 24.3753 34.785 30.2442C34.4402 30.3192 34.0879 30.3942 33.7281 30.4691C32.2665 30.7839 30.7374 31.2337 29.2983 31.7508C29.0134 31.8558 28.7361 31.9607 28.4663 32.0657C28.2114 32.1706 27.9566 32.2755 27.7017 32.3805C27.252 32.5828 26.8248 32.7852 26.4425 32.9876L26.42 33.0101H26.3975C25.8578 33.3249 24.2388 34.4717 20.9108 38.7216L20.8883 38.7441L20.8659 38.7666C17.7178 42.7917 13.9625 48.3233 9.75755 55.2492C0.650551 70.2026 -0.158958 75.7343 0.0209351 78.6126V78.635C0.0359268 78.785 0.0509186 78.9199 0.0659103 79.0398C0.470665 82.5027 3.10157 84.9537 7.17162 85.6508C9.86999 86.5278 13.2205 87 16.9082 87C18.3474 87 19.854 86.91 21.383 86.7751C22.1701 86.7077 23.092 86.6177 24.1039 86.5278C33.5482 85.6958 51.29 84.2791 51.4699 84.2567L52.2119 84.1892L52.8191 83.7395C62.5107 76.3414 63.0054 74.9473 63.2528 74.2727L64.3996 71.1246L61.0491 70.8547C60.9592 70.8547 51.5598 70.1127 35.9992 68.0439C35.482 67.9765 34.7175 67.954 33.7506 67.954C31.9966 67.954 28.8935 68.0664 25.4531 68.4712C25.7379 68.3662 26.0302 68.2763 26.3301 68.2013C28.6686 67.5268 30.6924 65.9977 32.0416 63.9289C34.65 59.8589 36.1117 56.7108 36.5164 54.3047C36.6064 53.7426 36.8762 52.0786 35.8418 46.2996C35.9168 46.2996 35.9842 46.2996 36.0442 46.2996C36.8312 46.3895 37.7981 46.4795 38.855 46.4795C45.6009 46.4795 50.3905 42.297 53.4712 33.7072C55.8997 26.8713 58.6206 22.5539 61.5438 20.8674C62.5557 20.2828 63.8824 19.9904 65.4789 19.9904C65.8387 19.9904 66.206 20.0054 66.5808 20.0354C67.5252 20.1029 68.3797 20.2603 69.0768 20.4177C68.1548 21.4521 67.5027 22.7563 67.2779 24.1954C66.9406 26.6464 66.3784 28.8726 65.8612 30.0644C65.299 31.3011 64.9617 32.4254 64.6694 33.4148C64.1522 35.1463 63.8374 36.0907 62.893 36.9452C60.0822 39.5311 57.9685 40.8578 56.5743 40.8578C56.237 40.8578 55.9222 40.7904 55.45 40.633L51.0651 39.1489L52.1445 43.6462C52.2344 43.961 53.0215 46.8392 56.7767 47.8511H56.7992C57.8111 48.121 58.8454 48.2559 59.8573 48.2559C59.9473 48.2559 60.442 48.2784 62.9829 48.4358C64.8493 48.5707 66.2885 50.0548 66.3784 51.8987C66.9181 64.4911 66.3559 67.999 66.131 68.8534C65.6363 69.9778 61.8586 77.6681 60.352 80.299C59.9248 81.0636 59.4526 81.8281 58.9354 82.6376L56.4619 86.5503H71.9775L72.1349 84.1442C72.1349 84.1217 72.2698 82.098 72.4048 79.1073C76.16 82.1654 79.0383 84.459 79.0832 84.504L80.23 85.4259L81.6242 84.8863C81.7591 84.8188 85.1546 83.4696 88.5725 81.9406C90.6188 80.9961 92.2603 80.1866 93.4071 79.512C94.7338 78.77 97.1623 77.3758 96.5552 75.0147C96.1504 73.3732 90.2365 64.0638 88.4151 61.2306C86.009 57.4753 80.0501 48.3458 76.8346 44.6581C75.4629 43.1065 74.0688 41.7573 72.5847 40.5655C74.2037 38.3619 75.3955 36.1357 76.16 34.4492C77.9589 30.5815 79.2631 23.8581 78.3187 20.665V20.6201L78.2962 20.5976C78.2962 20.5976 78.2287 20.3502 78.0713 19.923C77.734 19.001 77.3518 18.0791 76.9695 17.2021C75.9351 14.841 74.5185 11.648 72.2698 9.4443C66.2884 3.6428 57.9685 0.112432 50.0083 0C49.9333 0 49.8584 0 49.7834 0C45.6459 0 42.4978 1.664 40.3841 4.99199ZM49.9858 2.54097C57.6087 2.6534 65.299 6.22874 70.4934 11.2657C72.3823 13.1096 73.6865 16.0553 74.6309 18.214C75.1031 19.3158 75.4629 20.2378 75.6653 20.7999C75.8002 21.1597 75.8677 21.3846 75.8677 21.3846C76.5423 23.6782 75.5978 29.6146 73.8439 33.3923C73.1468 34.8989 71.4828 38.2494 68.8969 41.0602C70.9881 42.3869 72.9444 44.0734 74.9232 46.3445C80.0052 52.146 93.7219 74.1602 94.0817 75.6219C94.4415 77.061 80.6798 82.5027 80.6798 82.5027C80.6798 82.5027 75.6428 78.4776 70.1111 73.9354C69.8638 79.512 69.594 83.9868 69.594 83.9868H61.0941C61.6038 83.1923 62.091 82.3828 62.5557 81.5583C64.1972 78.725 68.4247 70.0902 68.5596 69.7079C69.4141 66.8746 69.1892 57.7676 68.9194 51.7863C68.7844 48.6382 66.3109 46.1197 63.1628 45.8948C61.6113 45.8049 60.2171 45.7149 59.8573 45.7149C59.0928 45.7149 58.2833 45.6025 57.4288 45.4001C55.0227 44.7255 54.618 43.039 54.618 43.039C55.2251 43.2414 55.8547 43.3988 56.5743 43.3988C58.3732 43.3988 60.7118 42.4319 64.6245 38.8341C66.9181 36.6979 66.7607 34.2468 68.1773 31.1212C68.8294 29.6821 69.4365 27.2086 69.8188 24.5777C70.1561 22.2841 72.0899 20.6425 74.3161 20.6425C74.6459 20.6425 74.9832 20.68 75.328 20.755C74.6759 20.1029 73.4616 19.1135 71.7077 18.5063C71.2579 18.3489 69.2342 17.6968 66.7831 17.4944C66.3634 17.4645 65.9287 17.4495 65.4789 17.4495C63.725 17.4495 61.8586 17.7418 60.2621 18.6637C55.36 21.497 52.3918 29.1649 51.0651 32.8527C47.6247 42.4769 42.7002 43.9385 38.855 43.9385C37.3709 43.9385 36.0667 43.7136 35.0548 43.6687C35.0248 43.6687 34.9948 43.6687 34.9649 43.6687C33.9979 43.6687 33.2109 44.4107 33.1434 45.3326C33.1285 45.4826 33.136 45.64 33.1659 45.8049C33.6382 48.3233 34.2678 52.236 33.9979 53.9C33.6157 56.2386 31.8842 59.4541 29.8829 62.5573C28.8935 64.0863 27.3869 65.2331 25.633 65.7503C23.3619 66.3799 21.2256 67.2344 19.5392 68.3363C18.5947 68.9209 14.3673 71.5968 13.0406 74.2502C17.6953 71.4169 28.916 70.495 33.7506 70.495C34.6051 70.495 35.2572 70.5174 35.6619 70.5849C51.4699 72.6761 60.8692 73.4182 60.8692 73.4182C60.3745 74.7674 51.2675 81.7157 51.2675 81.7157C51.2675 81.7157 33.4583 83.1548 23.879 83.9868C22.8671 84.0768 21.9452 84.1667 21.1357 84.2342C19.6666 84.3691 18.2574 84.4366 16.9082 84.4366C13.3104 84.4366 10.1848 83.9868 7.77876 83.1773C5.14784 82.7726 2.8992 81.4458 2.60687 78.7475C2.59188 78.6425 2.57689 78.5376 2.5619 78.4327C2.33704 74.9698 4.67563 68.5162 11.9387 56.5759C16.8183 48.5482 20.3936 43.5112 22.8671 40.3407C22.8821 40.3257 22.8971 40.3107 22.9121 40.2957C26.2851 36.0008 27.6568 35.2362 27.6568 35.2362C27.9491 35.0788 28.3089 34.8989 28.7361 34.719C28.946 34.6291 29.1708 34.5392 29.4107 34.4492C29.6506 34.3443 29.9054 34.2468 30.1752 34.1569C31.3445 33.7296 32.7837 33.2799 34.2903 32.9426C34.6201 32.8677 34.9574 32.8002 35.3022 32.7402H35.3246C36.4714 32.5154 37.281 31.5485 37.3259 30.4017C37.4833 25.0049 38.9899 17.337 39.5971 14.7736C41.0812 8.63479 42.5653 2.54097 49.7834 2.54097C49.8434 2.54097 49.9108 2.54097 49.9858 2.54097Z" fill="#00042D"/>
<path d="M2.56242 78.4318C2.57741 78.5367 2.5924 78.6417 2.60739 78.7466C2.89971 81.445 5.14835 82.7717 7.77927 83.1764C11.0848 84.2783 15.7844 84.728 21.1362 84.2333C21.9457 84.1658 22.8677 84.0759 23.8795 83.986C33.4588 83.154 51.268 81.7148 51.268 81.7148C51.268 81.7148 60.375 76.0033 60.8697 74.6541C60.8697 74.6541 59.543 74.3618 57.047 73.912C55.3605 73.5972 53.1344 73.215 50.391 72.7652C46.4559 72.1131 41.4864 71.3486 35.6624 70.584C33.0765 70.2243 18.5053 70.9213 13.0411 74.2493C14.3678 71.5959 18.5952 68.92 19.5397 68.3129C21.2262 67.2336 23.3624 66.3791 25.6335 65.7495C27.3874 65.2323 28.894 64.0855 29.8834 62.5564C31.8847 59.4533 33.6162 56.2377 33.9984 53.8991C34.2683 52.2351 33.6387 48.3225 33.1665 45.804C33.1365 45.6391 33.129 45.4817 33.144 45.3318C33.2339 44.3873 34.0434 43.6228 35.0553 43.6678C38.6981 43.8477 46.2985 46.1863 51.0656 32.8518C52.3923 29.164 55.3605 21.4962 60.2626 18.6629C62.2639 17.5161 64.6699 17.3362 66.7837 17.4936C69.2347 17.696 71.2585 18.3481 71.7082 18.5055C73.4621 19.1126 74.6764 20.102 75.3285 20.7541C74.9837 20.6792 74.6464 20.6417 74.3166 20.6417C72.0905 20.6417 70.1566 22.2832 69.8193 24.5768C69.4371 27.2077 68.8299 29.6812 68.1778 31.1203C66.7612 34.246 66.9186 36.697 64.625 38.8332C59.1608 43.8702 56.7322 43.7577 54.6185 43.0382C54.6185 43.0382 55.0233 44.7246 57.4293 45.3992C58.2838 45.6016 59.0933 45.714 59.8578 45.714C60.2176 45.714 61.6118 45.804 63.1633 45.8939C66.3114 46.1188 68.7849 48.6373 68.9199 51.7854C69.1897 57.7668 69.4146 66.8738 68.5601 69.7071C68.4252 70.0893 64.1977 78.7241 62.5562 81.5574C62.0915 82.3819 61.6043 83.1914 61.0946 83.986H69.5945C69.5945 83.986 69.8643 79.5112 70.1116 73.9345C75.6433 78.4768 80.6803 82.5018 80.6803 82.5018C80.6803 82.5018 94.442 77.0601 94.0822 75.621C93.7224 74.1594 80.0057 52.1452 74.9237 46.3437C72.9449 44.0725 70.9886 42.3861 68.8974 41.0594C71.4833 38.2486 73.1473 34.8981 73.8444 33.3915C75.5983 29.6138 76.5428 23.6773 75.8682 21.3837C75.8682 21.3837 75.8007 21.1589 75.6658 20.7991C75.4634 20.2369 75.1036 19.315 74.6314 18.2131C73.687 16.0544 72.3828 13.1087 70.4939 11.2648C65.2995 6.22787 57.6092 2.65253 49.9863 2.5401C42.5883 2.42766 41.0817 8.56646 39.5976 14.7727C38.9904 17.3362 37.4838 25.004 37.3264 30.4008C37.2815 31.5476 36.472 32.5145 35.3251 32.7394H35.3027C34.9579 32.7993 34.6206 32.8668 34.2908 32.9417C32.7842 33.279 31.345 33.7288 30.1757 34.156C29.9059 34.246 29.6511 34.3434 29.4112 34.4483C29.1714 34.5383 28.9465 34.6282 28.7366 34.7182C28.3094 34.8981 27.9496 35.078 27.6573 35.2354C27.6573 35.2354 26.2856 35.9999 22.9126 40.2948C22.8976 40.3098 22.8826 40.3248 22.8677 40.3398C20.3941 43.5104 16.8188 48.5473 11.9393 56.575C4.67614 68.5153 2.33755 74.9689 2.56242 78.4318Z" fill="url(#paint0_linear_1_4292)"/>
<path style="mix-blend-mode:multiply" d="M19.5391 68.3356C21.2256 67.2338 23.3618 66.3793 25.6329 65.7497C27.3869 65.2325 28.8935 64.0857 29.8829 62.5566C31.8842 59.4535 33.6156 56.238 33.9979 53.8994C34.2677 52.2354 33.6381 48.3227 33.1659 45.8042C33.1359 45.6393 33.1284 45.4819 33.1434 45.332C32.5138 47.3783 32.5363 50.4365 31.8842 52.3028C28.1514 63.5011 20.2137 67.5261 19.5391 68.3356Z" fill="url(#paint1_linear_1_4292)"/>
<path style="mix-blend-mode:multiply" d="M2.56177 78.4333C2.57676 78.5383 2.59175 78.6432 2.60674 78.7481C2.89907 81.4465 5.14771 82.7732 7.77862 83.178C11.0841 84.2798 15.7838 84.7295 21.1356 84.2348C21.9451 84.1674 22.867 84.0774 23.8789 83.9875C33.4581 83.1555 51.2674 81.7163 51.2674 81.7163C51.2674 81.7163 54.8202 76.9042 57.0464 73.9135C55.3599 73.5987 53.1338 73.2165 50.3904 72.7667C48.3217 75.69 45.241 77.7812 38.7649 78.6582C29.3431 79.9399 22.3723 81.2891 14.0973 80.4346C9.68996 79.9849 6.45192 77.9836 6.78922 75.2402C7.89105 65.5486 17.7851 47.402 22.867 40.3413C20.3935 43.5119 16.8182 48.5489 11.9386 56.5765C4.6755 68.5168 2.3369 74.9704 2.56177 78.4333Z" fill="url(#paint2_linear_1_4292)"/>
<path d="M77.9588 84.2558H33.8179C33.2333 84.2558 32.761 83.7836 32.761 83.1989V82.5468C32.761 81.9622 33.2333 81.5125 33.8179 81.5125H77.9588C78.5434 81.5125 79.0156 81.9622 79.0156 82.5468V83.1989C79.0156 83.7836 78.5434 84.2558 77.9588 84.2558Z" fill="white"/>
<path d="M68.6267 84.2558H23.1366C22.7319 84.2558 22.3946 83.9185 22.3946 83.5137V82.8841C22.3946 82.1196 23.0242 81.5125 23.7887 81.5125H68.6267C68.6417 81.5125 68.6492 81.5125 68.6492 81.5125V84.2333C68.6492 84.2483 68.6417 84.2558 68.6267 84.2558Z" fill="white"/>
<path d="M68.6267 84.2558H23.1366C22.7319 84.2558 22.3946 83.9185 22.3946 83.5137V82.8841C22.3946 82.1196 23.0242 81.5125 23.7887 81.5125H68.6267C68.6417 81.5125 68.6492 81.5125 68.6492 81.5125V84.2333C68.6492 84.2483 68.6417 84.2558 68.6267 84.2558Z" fill="white"/>
<path d="M102.761 84.2569H50.7723C49.7154 84.2569 48.9958 83.1551 49.4231 82.1881L64.7588 46.7495C65.0062 46.2099 65.5233 45.8726 66.1305 45.8726H118.119C119.176 45.8726 119.896 46.9519 119.468 47.9413L104.133 83.3574C103.885 83.8971 103.368 84.2569 102.761 84.2569Z" fill="url(#paint3_linear_1_4292)"/>
<path d="M102.761 84.2569H50.7723C49.7154 84.2569 48.9958 83.1551 49.4231 82.1881L64.7588 46.7495C65.0062 46.2099 65.5233 45.8726 66.1305 45.8726H118.119C119.176 45.8726 119.896 46.9519 119.468 47.9413L104.133 83.3574C103.885 83.8971 103.368 84.2569 102.761 84.2569Z" fill="white"/>
<path d="M105.302 84.2566H53.3138C52.2569 84.2566 51.5373 83.1548 51.9646 82.1879L67.3003 46.7493C67.5477 46.2096 68.0648 45.8723 68.672 45.8723H120.661C121.717 45.8723 122.437 46.9517 122.01 47.9411L106.674 83.3572C106.427 83.8969 105.91 84.2566 105.302 84.2566Z" fill="url(#paint4_linear_1_4292)"/>
<path style="mix-blend-mode:multiply" d="M54.6184 43.0393C54.6184 43.0393 55.8776 45.4229 58.8908 44.8157C64.9621 43.624 68.8073 39.2391 70.8761 33.7299C72.1578 30.3345 72.6075 27.2763 73.0572 25.0052C73.5519 22.3518 75.3284 20.7553 75.3284 20.7553C74.9836 20.6803 74.6463 20.6428 74.3165 20.6428C72.0903 20.6428 70.1565 22.2843 69.8192 24.5779C69.4369 27.2089 68.8298 29.6824 68.1777 31.1215C66.761 34.2471 66.9184 36.6981 64.6248 38.8343C59.1606 43.8713 56.7321 43.7589 54.6184 43.0393Z" fill="url(#paint5_linear_1_4292)"/>
<path style="mix-blend-mode:multiply" d="M35.0551 43.668C38.6979 43.8479 46.2983 46.1864 51.0654 32.852C52.3921 29.1642 55.3603 21.4963 60.2624 18.6631C62.2637 17.5162 64.6697 17.3364 66.7834 17.4938C53.494 14.9303 50.8631 24.7344 45.5113 33.9988C41.1489 41.5542 36.6966 42.4537 35.0551 43.668Z" fill="url(#paint6_linear_1_4292)"/>
<path d="M42.3625 54.3719C42.5199 51.5836 42.6548 48.7278 42.6323 46.9964C42.6323 46.749 42.8122 46.5466 43.0596 46.5466C43.3069 46.5466 43.5093 46.7265 43.5093 46.9739C43.5318 48.7503 43.3744 51.6286 43.2395 54.4169C43.1046 56.8454 42.9921 59.3864 42.9921 61.0279C42.9921 61.2528 42.7897 61.4551 42.5424 61.4551C42.295 61.4551 42.1152 61.2528 42.1152 61.0279C42.1152 59.3639 42.2276 56.9354 42.3625 54.3719Z" fill="url(#paint7_linear_1_4292)"/>
<path d="M53.988 47.8521C53.988 47.6047 54.1679 47.4023 54.4152 47.4023C54.6626 47.4023 54.865 47.5822 54.865 47.8296C54.9099 50.6629 54.775 53.8335 54.6401 56.9141C54.5726 58.2858 54.5052 59.6125 54.4602 60.8717C54.4602 61.1191 54.2578 61.299 54.033 61.299C54.033 61.299 54.0255 61.299 54.0105 61.299C53.7856 61.299 53.5832 61.0741 53.5832 60.8492C53.6282 59.5675 53.6957 58.2408 53.7631 56.8691C53.898 53.811 54.033 50.6629 53.988 47.8521Z" fill="url(#paint8_linear_1_4292)"/>
<defs>
<linearGradient id="paint0_linear_1_4292" x1="99.3456" y1="71.3589" x2="82.687" y2="-8.34066" gradientUnits="userSpaceOnUse">
<stop stop-color="#FF00C1"/>
<stop offset="1" stop-color="#F4AC24"/>
</linearGradient>
<linearGradient id="paint1_linear_1_4292" x1="44.9168" y1="70.7979" x2="46.0523" y2="44.4503" gradientUnits="userSpaceOnUse">
<stop stop-color="#F4D63B" stop-opacity="0"/>
<stop offset="1" stop-color="#5C1CB2"/>
</linearGradient>
<linearGradient id="paint2_linear_1_4292" x1="1.7327" y1="52.9231" x2="22.1695" y2="115.868" gradientUnits="userSpaceOnUse">
<stop stop-color="#F4D63B" stop-opacity="0"/>
<stop offset="1" stop-color="#5C1CB2"/>
</linearGradient>
<linearGradient id="paint3_linear_1_4292" x1="74.974" y1="41.9208" x2="64.5063" y2="82.954" gradientUnits="userSpaceOnUse">
<stop stop-color="#A76DFC"/>
<stop offset="1" stop-color="#5C1CB2"/>
</linearGradient>
<linearGradient id="paint4_linear_1_4292" x1="77.5159" y1="41.9205" x2="67.0483" y2="82.9538" gradientUnits="userSpaceOnUse">
<stop stop-color="#A76DFC"/>
<stop offset="1" stop-color="#5C1CB2"/>
</linearGradient>
<linearGradient id="paint5_linear_1_4292" x1="92.7756" y1="51.2142" x2="72.7464" y2="6.05409" gradientUnits="userSpaceOnUse">
<stop stop-color="#F4D63B" stop-opacity="0"/>
<stop offset="1" stop-color="#5C1CB2"/>
</linearGradient>
<linearGradient id="paint6_linear_1_4292" x1="42.0216" y1="6.14936" x2="32.6261" y2="47.8905" gradientUnits="userSpaceOnUse">
<stop stop-color="#F4D63B" stop-opacity="0"/>
<stop offset="1" stop-color="#5C1CB2"/>
</linearGradient>
<linearGradient id="paint7_linear_1_4292" x1="-37.279" y1="48.6853" x2="-36.1153" y2="67.186" gradientUnits="userSpaceOnUse">
<stop stop-color="#F4AC24"/>
<stop offset="1" stop-color="#FF00C1"/>
</linearGradient>
<linearGradient id="paint8_linear_1_4292" x1="-21.9637" y1="47.7214" x2="-20.801" y2="66.2118" gradientUnits="userSpaceOnUse">
<stop stop-color="#F4AC24"/>
<stop offset="1" stop-color="#FF00C1"/>
</linearGradient>
</defs>
</svg>
