<svg width="95" height="87" viewBox="0 0 95 87" fill="none" xmlns="http://www.w3.org/2000/svg">
<path d="M86.4611 86.9998C76.5967 79.9696 63.0855 75.6196 48.1682 75.6196C33.2729 75.6196 19.7616 79.9696 9.89734 86.9998H86.4611Z" fill="white"/>
<path d="M90.7451 82.9338C88.7898 83.1974 62.734 82.9338 62.734 82.9338L62.1189 80.2095L59.7461 69.4884C59.7461 69.4884 69.3468 69.9717 68.7536 69.2467C68.1605 68.5437 67.1059 57.515 61.7673 55.8454C56.4287 54.1757 48.1682 53.934 48.1682 53.934V32.9751L55.7916 27.8562C59.4825 32.1622 79.1672 43.125 81.5619 48.3757C83.9565 53.6045 93.3595 66.9399 94.2163 72.1687C95.0951 77.4194 92.7004 82.6921 90.7451 82.9338Z" fill="url(#paint0_linear_1_4265)"/>
<path style="mix-blend-mode:multiply" d="M90.7449 82.9345C88.7896 83.1981 62.7338 82.9345 62.7338 82.9345L62.1187 80.2103C66.9519 80.0126 74.0261 79.6391 80.5291 79.0898C91.8214 78.1232 94.2161 72.1694 94.2161 72.1694C95.0949 77.4201 92.7002 82.6928 90.7449 82.9345Z" fill="url(#paint1_linear_1_4265)"/>
<path style="mix-blend-mode:multiply" d="M86.4609 69.8639C86.4609 69.8639 80.5731 57.0557 74.5974 53.7822L76.4868 68.5018L86.4609 69.8639Z" fill="url(#paint2_linear_1_4265)"/>
<path d="M74.5969 71.1145C74.5969 71.1145 82.8354 68.5661 90.2831 72.2569C90.2831 72.2569 88.3937 68.5221 80.4627 66.8964C80.4627 66.8964 75.4097 50.2655 69.434 49.4965C63.4583 48.7056 63.1508 72.2569 63.1508 72.2569L74.5969 71.1145Z" fill="#00042D"/>
<path d="M38.6117 27.8562C34.9208 32.1622 15.2361 43.125 12.8414 48.3757C10.4468 53.6045 1.04382 66.9399 0.187009 72.1687C-0.691771 77.4194 1.7029 82.6921 3.65819 82.9338C5.61347 83.1974 31.6693 82.9338 31.6693 82.9338L34.6572 69.4884C34.6572 69.4884 25.0565 69.9717 25.6497 69.2467C26.2428 68.5437 27.2974 57.515 32.636 55.8454C37.9746 54.1757 46.2351 53.934 46.2351 53.934V32.9751L38.6117 27.8562Z" fill="url(#paint3_linear_1_4265)"/>
<path style="mix-blend-mode:multiply" d="M3.65819 82.9345C5.61347 83.1981 31.6693 82.9345 31.6693 82.9345L32.2845 80.2103C27.4512 80.0126 20.377 79.6391 13.874 79.0898C2.58168 78.1232 0.187009 72.1694 0.187009 72.1694C-0.691771 77.4201 1.7029 82.6928 3.65819 82.9345Z" fill="url(#paint4_linear_1_4265)"/>
<path style="mix-blend-mode:multiply" d="M7.94141 69.8639C7.94141 69.8639 13.8292 57.0557 19.8049 53.7822L17.9156 68.5018L7.94141 69.8639Z" fill="url(#paint5_linear_1_4265)"/>
<path d="M20.5081 71.1145C20.5081 71.1145 12.2696 68.5661 4.8219 72.2569C4.8219 72.2569 6.71128 68.5221 14.6203 66.8964C14.6203 66.8964 19.6733 50.2655 25.671 49.4965C31.6467 48.7056 31.9323 72.2569 31.9323 72.2569L20.5081 71.1145Z" fill="#00042D"/>
<path d="M66.9959 27.0668C66.7103 33.2842 65.6338 46.4 61.2619 49.9591C57.9884 52.6174 52.0566 50.9477 47.6188 50.9477C42.434 50.9477 37.1833 53.4522 33.7121 49.9591C30.197 46.4439 28.4834 32.5153 28.2417 27.0668C31.647 19.773 39.0507 14.698 47.6188 14.698C56.2089 14.698 63.6126 19.773 66.9959 27.0668Z" fill="url(#paint6_linear_1_4265)"/>
<path style="mix-blend-mode:multiply" d="M29.0995 20.8922C29.0995 30.0315 31.4283 39.6102 33.2517 43.8503C35.0972 48.0905 41.2047 55.8018 47.6417 56.9442C54.0788 58.0866 60.3841 48.7495 62.4053 43.2132C65.7007 34.2936 66.0082 19.6619 66.0082 19.6619C66.0082 19.6619 55.5068 10.1052 45.6865 11.0059C35.8881 11.8847 29.0995 20.8922 29.0995 20.8922Z" fill="url(#paint7_linear_1_4265)"/>
<path d="M33.0752 18.6531C33.0752 25.7273 34.8987 33.131 36.3486 36.4045C37.7767 39.6999 41.8191 46.5544 47.619 46.5544C52.7379 46.5544 57.6151 40.2052 59.1969 35.9431C61.7893 29.0228 62.031 17.6865 62.031 17.6865C62.031 17.6865 53.7924 10.3047 46.1031 10.9858C38.3918 11.6668 33.0752 18.6531 33.0752 18.6531Z" fill="#00042D"/>
<path d="M47.6194 0C40.4793 0 28.2203 14.7635 28.2203 26.0778C28.2203 26.4147 28.2277 26.7442 28.2423 27.0664C31.6476 19.7726 39.0513 14.6976 47.6194 14.6976C56.2095 14.6976 63.6132 19.7726 66.9965 27.0664C67.0112 26.7442 67.0185 26.4147 67.0185 26.0778C67.0185 14.7635 55.0012 0 47.6194 0Z" fill="url(#paint8_linear_1_4265)"/>
<path d="M70.9295 81.7476H24.3102C22.1132 81.7476 20.2678 80.056 20.092 77.859L17.4557 47.5631C17.236 45.0805 19.1913 42.9495 21.6738 42.9495H73.5658C76.0703 42.9495 78.0037 45.0805 77.8059 47.5631L75.1696 77.859C74.9719 80.056 73.1484 81.7476 70.9295 81.7476Z" fill="white"/>
<path d="M70.9295 83.0662H24.3102C22.1132 83.0662 20.2678 81.3746 20.092 79.1776L17.4557 48.8817C17.236 46.3991 19.1913 44.2681 21.6738 44.2681H73.5658C76.0703 44.2681 78.0037 46.3991 77.8059 48.8817L75.1696 79.1776C74.9719 81.3746 73.1484 83.0662 70.9295 83.0662Z" fill="url(#paint9_linear_1_4265)"/>
<g style="mix-blend-mode:multiply">
<path d="M24.2443 44.2681H21.6738C19.1913 44.2681 17.236 46.3991 17.4557 48.8817L20.092 79.1776C20.2678 81.3746 22.1132 83.0662 24.3102 83.0662H26.1337L24.2443 44.2681Z" fill="url(#paint10_linear_1_4265)"/>
<path d="M73.5652 44.2681H70.9947L69.1053 83.0662H70.9288C73.1477 83.0662 74.9712 81.3746 75.1689 79.1776L77.8053 48.8817C78.003 46.3991 76.0697 44.2681 73.5652 44.2681Z" fill="url(#paint11_linear_1_4265)"/>
</g>
<defs>
<linearGradient id="paint0_linear_1_4265" x1="7.54111" y1="84.7041" x2="66.9595" y2="-24.9328" gradientUnits="userSpaceOnUse">
<stop stop-color="#FF00C1"/>
<stop offset="1" stop-color="#F4AC24"/>
</linearGradient>
<linearGradient id="paint1_linear_1_4265" x1="69.8756" y1="86.5852" x2="79.9845" y2="64.365" gradientUnits="userSpaceOnUse">
<stop stop-color="#F4D63B" stop-opacity="0"/>
<stop offset="1" stop-color="#5C1CB2"/>
</linearGradient>
<linearGradient id="paint2_linear_1_4265" x1="94.7391" y1="50.4317" x2="90.8766" y2="73.0543" gradientUnits="userSpaceOnUse">
<stop stop-color="#F4D63B" stop-opacity="0"/>
<stop offset="1" stop-color="#5C1CB2"/>
</linearGradient>
<linearGradient id="paint3_linear_1_4265" x1="-23.024" y1="52.1986" x2="18.107" y2="-23.6951" gradientUnits="userSpaceOnUse">
<stop stop-color="#FF00C1"/>
<stop offset="1" stop-color="#F4AC24"/>
</linearGradient>
<linearGradient id="paint4_linear_1_4265" x1="24.5275" y1="86.5852" x2="14.4186" y2="64.365" gradientUnits="userSpaceOnUse">
<stop stop-color="#F4D63B" stop-opacity="0"/>
<stop offset="1" stop-color="#5C1CB2"/>
</linearGradient>
<linearGradient id="paint5_linear_1_4265" x1="-0.336703" y1="50.4317" x2="3.52573" y2="73.0543" gradientUnits="userSpaceOnUse">
<stop stop-color="#F4D63B" stop-opacity="0"/>
<stop offset="1" stop-color="#5C1CB2"/>
</linearGradient>
<linearGradient id="paint6_linear_1_4265" x1="-3.03321" y1="75.3934" x2="44.9416" y2="-13.1281" gradientUnits="userSpaceOnUse">
<stop stop-color="#FF00C1"/>
<stop offset="1" stop-color="#F4AC24"/>
</linearGradient>
<linearGradient id="paint7_linear_1_4265" x1="14.2" y1="55.2637" x2="18.5474" y2="13.0331" gradientUnits="userSpaceOnUse">
<stop stop-color="#F4D63B" stop-opacity="0"/>
<stop offset="1" stop-color="#5C1CB2"/>
</linearGradient>
<linearGradient id="paint8_linear_1_4265" x1="-2.75337" y1="75.5087" x2="44.6072" y2="-11.8791" gradientUnits="userSpaceOnUse">
<stop stop-color="#FF00C1"/>
<stop offset="1" stop-color="#F4AC24"/>
</linearGradient>
<linearGradient id="paint9_linear_1_4265" x1="75.3271" y1="43.7404" x2="52.238" y2="103.267" gradientUnits="userSpaceOnUse">
<stop stop-color="#A76DFC"/>
<stop offset="1" stop-color="#5C1CB2"/>
</linearGradient>
<linearGradient id="paint10_linear_1_4265" x1="109.753" y1="48.2993" x2="108.016" y2="85.0773" gradientUnits="userSpaceOnUse">
<stop stop-color="white" stop-opacity="0"/>
<stop offset="1" stop-color="#5C1CB2"/>
</linearGradient>
<linearGradient id="paint11_linear_1_4265" x1="161.315" y1="50.6403" x2="159.587" y2="87.2169" gradientUnits="userSpaceOnUse">
<stop stop-color="white" stop-opacity="0"/>
<stop offset="1" stop-color="#5C1CB2"/>
</linearGradient>
</defs>
</svg>
